Coordinates
version=1
nRows=5
nColumns=63
inDegrees=yes

Units are S.I. units (second, meters, Newtons, ...)
If the header above contains a line with 'inDegrees', this indicates whether rotational values are in degrees (yes) or radians (no).

endheader
time	pelvis_tilt	pelvis_list	pelvis_rotation	pelvis_tx	pelvis_ty	pelvis_tz	hip_flexion_r	hip_adduction_r	hip_rotation_r	knee_angle_r	knee_angle_r_beta	ankle_angle_r	subtalar_angle_r	mtp_angle_r	hip_flexion_l	hip_adduction_l	hip_rotation_l	knee_angle_l	knee_angle_l_beta	ankle_angle_l	subtalar_angle_l	mtp_angle_l	L5_S1_Flex_Ext	L5_S1_Lat_Bending	L5_S1_axial_rotation	L4_L5_Flex_Ext	L4_L5_Lat_Bending	L4_L5_axial_rotation	L3_L4_Flex_Ext	L3_L4_Lat_Bending	L3_L4_axial_rotation	L2_L3_Flex_Ext	L2_L3_Lat_Bending	L2_L3_axial_rotation	L1_L2_Flex_Ext	L1_L2_Lat_Bending	L1_L2_axial_rotation	L1_T12_Flex_Ext	L1_T12_Lat_Bending	L1_T12_axial_rotation	Abs_r3	Abs_r2	Abs_r1	Abs_t1	Abs_t2	neck_flexion	neck_bending	neck_rotation	arm_flex_r	arm_add_r	arm_rot_r	elbow_flex_r	pro_sup_r	wrist_flex_r	wrist_dev_r	arm_flex_l	arm_add_l	arm_rot_l	elbow_flex_l	pro_sup_l	wrist_flex_l	wrist_dev_l
      0.00000000	      2.04654871	     -3.89426276	     92.33413145	      0.26471404	      0.99787929	      0.37519410	     -1.00293243	      2.87120946	      1.84688449	      4.08441398	      0.07128647	     31.01738719	    -15.61013699	      0.00000000	     -1.16669673	     -4.82820058	     28.70655464	      1.69197944	      0.02953061	     33.93426522	    -14.92049848	      0.00000000	      0.21790678	      0.71381316	     -0.97523351	      0.40467468	      0.94937151	     -1.03618560	      0.35799904	      1.73556532	     -1.03618560	      0.24904566	      1.73556532	     -0.85332932	      0.20234823	      1.45560780	     -0.79237723	      0.12451193	      1.10569659	     -0.73142513	      1.55648632	      8.07479725	     -5.42395621	      0.00000000	      0.00000000	     24.55193061	      3.73676888	     26.02158127	     24.30617301	     -3.58345211	    107.58488675	     27.07681260	     85.90430117	     -9.43431588	     -2.63149173	     20.81923794	      9.76154365	    203.10546828	      0.45283594	      6.72361078	    -13.82941716	    -14.60563395
      0.01694915	      2.03977935	     -3.80763692	     91.77011949	      0.26600242	      0.99775351	      0.37361584	     -1.56139673	      2.94831356	      3.59098099	      3.62620004	      0.06328913	     30.49866258	    -16.30714789	      0.00000000	     -1.62328429	     -4.85083929	     29.03825464	      1.69538413	      0.02959004	     33.15256714	    -15.54384691	      0.00000000	      0.22278666	      0.68168382	     -0.81326711	      0.41373711	      0.90663948	     -0.86409630	      0.36601621	      1.65744604	     -0.86409630	      0.25462288	      1.65744604	     -0.71160872	      0.20687970	      1.39008965	     -0.66077952	      0.12730030	      1.05592824	     -0.60995033	      1.59134287	      7.71134371	     -4.52314766	      0.00000000	      0.00000000	     25.41792800	      1.76553924	     20.36816181	     22.27159174	     -5.35577521	     97.59647155	     28.74883735	     55.47067885	     -3.20276332	     -0.78431463	     20.80472318	      9.95274534	    205.22810098	      0.44515228	      6.42549778	    -14.63720076	    -14.63159669
      0.03389831	      2.05260211	     -3.70502982	     91.14883362	      0.26736480	      0.99774569	      0.37226835	     -2.03112939	      3.01088351	      5.16531254	      3.22135085	      0.05622318	     30.17208246	    -16.75842713	      0.00000000	     -2.06692476	     -4.89785171	     28.85330043	      1.61133268	      0.02812306	     32.57705786	    -15.83214949	      0.00000000	      0.22643221	      0.65804250	     -0.67061876	      0.42050726	      0.87519653	     -0.71253243	      0.37200548	      1.59996454	     -0.71253243	      0.25878938	      1.59996454	     -0.58679142	      0.21026495	      1.34188027	     -0.54487774	      0.12938337	      1.01930783	     -0.50296407	      1.61738266	      7.44390838	     -3.72978036	      0.00000000	      0.00000000	     25.68034868	      0.42232641	     16.43519523	     20.91552787	     -6.04894385	     91.81797170	     29.74272934	     49.65985719	     -2.62407532	     -0.10554086	     20.55295407	     10.03224455	    205.16617325	      0.45829216	      6.28335009	    -14.63506837	    -15.29706215
      0.05084746	      2.08090666	     -3.64261144	     91.00151371	      0.26782026	      0.99793916	      0.37179594	     -2.19978316	      3.06778170	      5.48658518	      3.16453104	      0.05523149	     30.20075937	    -16.59047225	      0.00000000	     -2.18147812	     -4.90775170	     28.79666157	      1.75326846	      0.03060031	     32.23154470	    -15.80506436	      0.00000000	      0.21920570	      0.66306330	     -0.71723996	      0.40708690	      0.88187419	     -0.76206746	      0.36013304	      1.61217211	     -0.76206746	      0.25053019	      1.61217211	     -0.62758497	      0.20355441	      1.35211869	     -0.58275747	      0.12525413	      1.02708506	     -0.53792997	      1.56576437	      7.50070469	     -3.98907351	      0.00000000	      0.00000000	     25.66634083	      0.33812869	     16.34952071	     20.81182911	     -6.06309403	     91.61089035	     29.80964007	     49.40473371	     -2.71985706	     -0.28886593	     20.21109565	     10.07551300	    205.10715974	      0.43652816	      6.17671480	    -14.64105569	    -15.36629198
      0.06779661	      1.99752508	     -3.27537919	     90.39887837	      0.26932104	      0.99834666	      0.37070626	     -3.03200591	      2.99222668	      7.31156285	      2.37775771	      0.04149970	     29.94132523	    -17.25529978	      0.00000000	     -2.86717414	     -4.86160374	     28.26791468	      1.51177964	      0.02638553	     31.91616212	    -16.19877386	      0.00000000	      0.18530218	      0.63573572	     -0.60516957	      0.34412467	      0.84552851	     -0.64299267	      0.30443295	      1.54572784	     -0.64299267	      0.21178186	      1.54572784	     -0.52952338	      0.17207160	      1.29639228	     -0.49170028	      0.10588166	      0.98475463	     -0.45387718	      1.32359493	      7.19156964	     -3.36577161	      0.00000000	      0.00000000	     25.35674006	     -0.19963558	     14.85727465	     20.58119213	     -5.98257817	     95.05529402	     30.19722005	     30.57447061	     -1.88270659	     -1.09079498	     19.68074091	      9.93408908	    203.03828115	      0.47801562	      4.36602665	    -13.08768297	    -16.69565758
